<!DOCTYPE svg PUBLIC "-//W3C//DTD SVG 1.1//EN" "http://www.w3.org/Graphics/SVG/1.1/DTD/svg11.dtd">
<!-- Uploaded to: SVG Repo, www.svgrepo.com, Transformed by: SVG Repo Mixer Tools -->
<svg version="1.1" id="Capa_1" xmlns="http://www.w3.org/2000/svg" xmlns:xlink="http://www.w3.org/1999/xlink" viewBox="-19.93 -19.93 239.18 239.18" xml:space="preserve" width="80px" height="80px" fill="#000000" stroke="#000000" stroke-width="2.591212" transform="matrix(1, 0, 0, 1, 0, 0)rotate(0)">
<g id="SVGRepo_bgCarrier" stroke-width="0" transform="translate(0,0), scale(1)">
<rect x="-19.93" y="-19.93" width="239.18" height="239.18" rx="119.59" fill="#d9f0f7" strokewidth="0"/>
</g>
<g id="SVGRepo_tracerCarrier" stroke-linecap="round" stroke-linejoin="round" stroke="#CCCCCC" stroke-width="5.182424"/>
<g id="SVGRepo_iconCarrier"> <g> <g> <rect x="50.147" y="79.406" style="fill:#010002;" width="40.047" height="4.484"/> <path style="fill:#010002;" d="M199.324,54.522l-25.209-33.437l0.075-0.064h-0.125l-0.115-0.15l-0.193,0.15H58.339L9.731,59.189 v1.5L0,90.379l9.731-7.086v95.162h119.262v-0.29l45.111-40.119v-58.07L199.324,54.522z M193.394,54.125l-39.94,40.291 l-23.832-32.571l41.168-37.71L193.394,54.125z M59.928,25.508h102.717l-36.766,33.684H18.317L59.928,25.508z M124.505,173.966 H14.226V63.687h110.279V173.966z M169.612,136.02l-40.624,36.125V68.58l23.946,32.739l16.674-16.821v51.521H169.612z"/> </g> </g> </g>
</svg>